<?xml version="1.0" encoding="UTF-8" standalone="no"?>
<!-- Created with Inkscape (http://www.inkscape.org/) -->

<svg
   width="7.0013757mm"
   height="7.780448mm"
   viewBox="0 0 7.0013757 7.780448"
   version="1.1"
   id="svg1"
   inkscape:version="1.4.2 (ebf0e940d0, 2025-05-08)"
   sodipodi:docname="rituals.svg"
   xmlns:inkscape="http://www.inkscape.org/namespaces/inkscape"
   xmlns:sodipodi="http://sodipodi.sourceforge.net/DTD/sodipodi-0.dtd"
   xmlns="http://www.w3.org/2000/svg"
   xmlns:svg="http://www.w3.org/2000/svg">
  <sodipodi:namedview
     id="namedview1"
     pagecolor="#ffffff"
     bordercolor="#666666"
     borderopacity="1.0"
     inkscape:showpageshadow="2"
     inkscape:pageopacity="0.0"
     inkscape:pagecheckerboard="0"
     inkscape:deskcolor="#d1d1d1"
     inkscape:document-units="mm"
     inkscape:zoom="5.6568543"
     inkscape:cx="28.90299"
     inkscape:cy="-18.561553"
     inkscape:window-width="1778"
     inkscape:window-height="1387"
     inkscape:window-x="8"
     inkscape:window-y="8"
     inkscape:window-maximized="1"
     inkscape:current-layer="g6" />
  <defs
     id="defs1">
    <rect
       x="279.23376"
       y="230.83324"
       width="242.00259"
       height="244.79492"
       id="rect1" />
  </defs>
  <g
     inkscape:label="Layer 1"
     inkscape:groupmode="layer"
     id="layer1"
     transform="translate(-101.49931,-144.60978)">
    <g
       id="g6"
       style="fill:#fff8dc;fill-opacity:1"
       transform="translate(4.4244977,75.123428)">
      <path
         id="text1"
         style="font-weight:bold;font-size:40px;line-height:1.25;font-family:'Yanone Kaffeesatz';-inkscape-font-specification:'Yanone Kaffeesatz Bold';text-align:center;text-orientation:upright;text-anchor:middle;white-space:pre;fill:#b0c4de;fill-opacity:1;stroke-width:0.264583"
         d="m 101.40053,69.496016 c -1.05747,0.06074 -2.294378,0.41258 -3.13676,1.373043 -0.958408,1.092755 -1.334183,2.593641 -1.138949,3.89847 0.09762,0.652414 0.345058,1.267258 0.789099,1.736328 0.444042,0.46907 1.059086,0.731405 2.11172,0.755597 -0.85918,-1.77069 -0.687709,-0.908721 -0.850189,-0.849424 -0.135939,0.04961 -0.48451,-0.495219 -0.573426,-0.672078 -0.152025,-0.302388 -0.254421,-0.672118 -0.324802,-1.142505 -0.140763,-0.940774 0.164933,-2.164326 0.861447,-2.958476 0.550976,-0.628209 1.4852,-0.928274 2.32802,-0.976685 0.42141,-0.0242 0.76683,-0.04912 1.03663,0.02222 0.1639,0.04334 0.23686,0.06942 0.31781,0.113688 0.0465,0.05612 0.0804,0.109123 0.10181,0.159164 0.0222,0.05194 0.0392,0.110236 0.0512,0.174149 0.0185,0.06117 0.0268,0.134393 0.0248,0.219625 0.14269,-0.0072 0.27504,-0.02927 0.39739,-0.06615 0.12237,-0.03687 0.21626,-0.06945 0.28112,-0.09715 0.1687,-0.07203 0.27388,-0.166621 0.31575,-0.284221 0.0418,-0.117599 0.006,-0.309631 -0.10749,-0.575675 -0.0335,-0.07845 -0.0699,-0.153817 -0.10956,-0.225826 -0.21964,-0.338149 -0.53394,-0.389543 -0.94619,-0.490926 -0.41225,-0.101383 -0.90063,-0.143543 -1.42937,-0.113172 z"
         sodipodi:nodetypes="sssscsssssscsccsscccsss" />
      <path
         style="font-weight:bold;font-size:10.5833px;line-height:1.25;font-family:'Yanone Kaffeesatz';-inkscape-font-specification:'Yanone Kaffeesatz Bold';text-align:center;text-orientation:upright;text-anchor:middle;fill:#241f31;fill-opacity:1;stroke-width:0.264583"
         d="m 104.07619,77.055126 q 0,0.08467 -0.0212,0.127 -0.0212,0.04233 -0.13758,0.0635 -0.10583,0.01058 -0.35983,0.02117 -0.24342,0 -0.68792,0 v -4.773068 q 0,-0.190499 0.0529,-0.296332 0.0529,-0.105833 0.17992,-0.148166 0.13758,-0.05292 0.37041,-0.0635 0.23283,-0.01058 0.60325,-0.01058 z"
         id="path5" />
      <path
         style="font-weight:bold;font-size:10.5833px;line-height:1.25;font-family:'Yanone Kaffeesatz';-inkscape-font-specification:'Yanone Kaffeesatz Bold';text-align:center;text-orientation:upright;text-anchor:middle;fill:#241f31;fill-opacity:1;stroke-width:0.264583"
         d="m 100.23445,72.345558 q 0.27516,-0.190499 0.64558,-0.328082 0.381,-0.148167 0.82549,-0.148167 0.43392,0 0.5715,0.127 0.13759,0.127 0.13759,0.402165 0,0.105833 -0.0212,0.296333 -0.0212,0.190499 -0.0952,0.391582 -0.11642,-0.05292 -0.21167,-0.0635 -0.0952,-0.02117 -0.17991,-0.02117 -0.0953,0 -0.22225,0.04233 -0.127,0.04233 -0.23283,0.126999 l -0.0106,3.884071 q 0,0.08467 -0.0212,0.127 -0.0212,0.04233 -0.13759,0.0635 -0.10583,0.01058 -0.34925,0.02117 -0.24341,0 -0.69849,0 z"
         id="text2" />
    </g>
  </g>
</svg>
